<svg width="300" height="300" viewBox="0 0 300 300" fill="none" xmlns="http://www.w3.org/2000/svg">
<path d="M47.1514 48.1845C48.9083 44.987 52.2671 43 55.9156 43H283.095C290.7 43 295.521 51.1511 291.86 57.8155L252.849 128.815C251.092 132.013 247.733 134 244.084 134H16.9046C9.30041 134 4.4786 125.849 8.14038 119.185L47.1514 48.1845Z" fill="black"/>
<path d="M47.1514 172.185C48.9083 168.987 52.2671 167 55.9156 167H283.095C290.7 167 295.521 175.151 291.86 181.815L252.849 252.815C251.092 256.013 247.733 258 244.084 258H16.9046C9.30041 258 4.4786 249.849 8.14038 243.185L47.1514 172.185Z" fill="black"/>
<ellipse cx="88.5" cy="88" rx="28.5" ry="12" fill="white"/>
<ellipse cx="165.5" cy="112" rx="28.5" ry="12" fill="white"/>
<ellipse cx="214.5" cy="212" rx="28.5" ry="12" fill="white"/>
<ellipse cx="76.5" cy="231" rx="28.5" ry="12" fill="white"/>
<ellipse cx="230.5" cy="76" rx="28.5" ry="12" fill="white"/>
<ellipse cx="145.5" cy="191" rx="28.5" ry="12" fill="white"/>
</svg>
